<?xml version="1.0" encoding="UTF-8"?>
<!DOCTYPE svg PUBLIC "-//W3C//DTD SVG 1.1 Tiny//EN" "http://www.w3.org/Graphics/SVG/1.1/DTD/svg11-tiny.dtd">
<svg baseProfile="tiny" width="96" height="96" fill="none" version="1.1" viewBox="0 0 96 96" xmlns="http://www.w3.org/2000/svg">
<g>
<path d="m88 49c0 29.6-10.4 40-40 40-29.6 0-40-10.4-40-40 0-29.6 10.4-40 40-40 29.6 0 40 10.4 40 40z" fill="#000" fill-opacity=".4"/>
<path d="m88 48c0 29.6-10.4 40-40 40-29.6 0-40-10.4-40-40 0-29.6 10.4-40 40-40 29.6 0 40 10.4 40 40z" fill="url(#c)"/>
<path d="m48 8c-29.6 0-40 10.4-40 40 0 29.6 10.4 40 40 40 29.6 0 40-10.4 40-40 0-29.6-10.4-40-40-40zm0 79c-29.2 0-39-9.84-39-39s9.84-39 39-39 39 9.84 39 39-9.84 39-39 39z" fill="url(#b)" fill-opacity=".25"/>
<g stroke="#000" stroke-width="2">
<rect x="33.5" y="33.5" width="10" height="10" rx="2"/>
<rect x="52.5" y="33.5" width="10" height="10" rx="2"/>
<rect x="33.5" y="51.5" width="10" height="10" rx="2"/>
</g>
<path d="m42.5 26c0.828 0 1.5 0.672 1.5 1.5s-0.672 1.5-1.5 1.5h-13.5v13.5c0 0.828-0.672 1.5-1.5 1.5s-1.5-0.672-1.5-1.5v-15c0-0.828 0.672-1.5 1.5-1.5h15z" fill="#C31111"/>
<path d="m27.5 68.5h15" stroke="#C31111" stroke-linecap="round" stroke-width="3"/>
<path d="m27.5 68.5v-15" stroke="#C31111" stroke-linecap="round" stroke-width="3"/>
<path d="m54 70c-0.828 0-1.5-0.672-1.5-1.5s0.672-1.5 1.5-1.5h13.5v-13.5c0-0.828 0.672-1.5 1.5-1.5s1.5 0.672 1.5 1.5v15c0 0.828-0.672 1.5-1.5 1.5h-15z" fill="#C31111"/>
<path d="m69 27.5h-15" stroke="#C31111" stroke-linecap="round" stroke-width="3"/>
<path d="m69 27.5v15" stroke="#C31111" stroke-linecap="round" stroke-width="3"/>
<g stroke="#000" stroke-linecap="round" stroke-width="3">
<path d="m48 34.5v12"/>
<path d="m53.5 47.5v12"/>
<path d="m62.5 52.5v4"/>
<path d="m58.5 52.5v2"/>
<path d="m43.5 47.5h-9"/>
<path d="m62.5 47.5h-4"/>
<path d="m62.5 60.5h-4"/>
<path d="m48 60.5v-4"/>
<path d="m48.5 51.5h-1"/>
</g>
<path d="m41.9 23.4c2.45-0.868 5.44-1.18 9.11-0.553l0.796 0.148 0.0195 0.0039 0.0186 0.0049 0.82 0.188 0.0186 0.0039 0.0185 0.0049 0.41 0.111c4.19 1.19 6.77 3.72 8.13 6.74v1e-3l0.23 0.548c0.934 2.38 1.05 4.76 1.06 6.25l2e-3 0.619v0.108l-0.0088 0.546c-0.0349 1.09-0.18 2.14-0.495 3.17l-0.172 0.514c-0.44 1.21-1.06 2.2-1.76 3.07l-0.304 0.366c-0.579 0.677-1.25 1.34-1.93 1.99l-0.682 0.643-0.267 0.25c-0.392 0.367-0.801 0.749-1.23 1.16l1e-3 1e-3 -1.75 1.72-0.292 0.304c-2.92 3.13-2.93 6.04-2.93 8.72v1.5h-3.88c3.17 0.142 5.67 2.78 5.67 5.98 0 3.29-2.64 5.99-5.94 5.99s-5.94-2.7-5.94-5.99c2e-4 -3.2 2.5-5.84 5.67-5.98h-3.88v-1.52l1e-3 -0.637c0.02-3.34 0.346-8.91 5.64-14.3l0.0156-0.0157 1.87-1.84 0.0156-0.0157 1.29-1.22 0.277-0.26 0.659-0.622c0.594-0.566 1-0.977 1.32-1.35l0.236-0.295c0.196-0.263 0.278-0.436 0.328-0.571l0.0556-0.182c0.0564-0.222 0.109-0.576 0.109-1.16l-0.0029-0.585c-0.0153-1.24-0.0972-2.34-0.462-3.28l-0.0899-0.214c-0.189-0.42-0.451-0.824-0.879-1.19-0.431-0.364-1.1-0.742-2.17-1.01l-0.466-0.104c-2.76-0.558-4.48-0.277-5.53 0.0967l-0.201 0.0762c-0.777 0.31-1.34 0.729-1.83 1.18l-0.442 0.428c-0.0062 0.0135-0.0133 0.0306-0.0215 0.0508-0.0382 0.0948-0.0897 0.251-0.14 0.484l-0.0489 0.26c-0.121 0.737-0.128 1.53-0.128 2.31v1.5h-8.3v-1.55c-1e-4 -0.74-0.0022-2.16 0.24-3.63l0.104-0.562c0.285-1.38 0.894-3.23 2.34-4.7l0.0215-0.0215 0.732-0.713 0.0147-0.0146 0.0156-0.0137c0.95-0.874 2.37-1.98 4.38-2.78l0.517-0.194z" fill="#E91818" stroke="url(#a)" stroke-width="3"/>
</g>
<defs>
<linearGradient id="c" x1="48" x2="48" y1="8" y2="88" gradientUnits="userSpaceOnUse">
<stop stop-color="#fff" offset="0"/>
<stop stop-color="#CCCAC6" offset="1"/>
</linearGradient>
<linearGradient id="b" x1="48" x2="48" y1="8.25" y2="87.5" gradientUnits="userSpaceOnUse">
<stop stop-color="#fff" offset="0"/>
<stop stop-color="#fff" stop-opacity="0" offset="1"/>
</linearGradient>
<linearGradient id="a" x1="48" x2="48" y1="24" y2="72" gradientUnits="userSpaceOnUse">
<stop stop-color="#F1F0EF" offset="0"/>
<stop stop-color="#E5E2E1" offset=".534"/>
<stop stop-color="#DCD4D1" offset="1"/>
</linearGradient>
</defs>
<path d="m45.8 60 2.21-0.0276-1.24 2.99-0.774 0.083z" fill="#e0dad8" stroke-width="1.51"/>
</svg>
