<?xml version="1.0" encoding="UTF-8"?>
<svg width="40" height="40" fill="none" version="1.1" viewBox="0 0 40 40" xmlns="http://www.w3.org/2000/svg">
 <g clip-path="url(#clip0_8_48)">
  <path d="m36.667 20.417c0 12.347-4.3179 16.667-16.667 16.667-12.348 0-16.667-4.3196-16.667-16.667 0-12.348 4.3188-16.667 16.667-16.667 12.349 0 16.667 4.3188 16.667 16.667z" fill="#000" fill-opacity=".4"/>
  <path d="m36.667 20c0 12.347-4.3179 16.667-16.667 16.667-12.348 0-16.667-4.3195-16.667-16.667 0-12.348 4.3188-16.667 16.667-16.667 12.349 0 16.667 4.3188 16.667 16.667z" fill="url(#paint0_linear_8_48)"/>
  <path d="m20 3.3333c-12.348 0-16.667 4.3188-16.667 16.667 0 12.347 4.3188 16.667 16.667 16.667 12.349 0 16.667-4.3195 16.667-16.667 0-12.348-4.3179-16.667-16.667-16.667zm0 32.917c-12.149 0-16.25-4.1009-16.25-16.25 0-12.149 4.1008-16.25 16.25-16.25 12.149 0 16.25 4.1008 16.25 16.25 0 12.149-4.1008 16.25-16.25 16.25z" fill="url(#paint1_linear_8_48)" fill-opacity=".25"/>
  <rect x="12.083" y="12.917" width="15.833" height="15.833" rx="2" fill="#000"/>
  <path d="m12.5 26.667c0 1 0.9722 1.5973 1.4583 1.6667h12.083c0.8333 0 1.6666-1.25 1.4583-1.875l-3.9583-6.875-3.9584 5.625-3.3333-3.125c-1.25 1.4583-3.75 3.9583-3.75 4.5833z" fill="#DFDEDC"/>
  <path d="m14.616 20.583c-0.3849 0.6667-1.3471 0.6667-1.732 0l-1.8764-3.25c-0.3849-0.6667 0.0962-1.5 0.866-1.5h3.7528c0.7698 0 1.2509 0.8333 0.866 1.5l-1.8764 3.25z" fill="#E8E8E6"/>
  <rect x="12.083" y="12.5" width="3.3333" height="4.1667" fill="#EFEEED"/>
  <g filter="url(#filter0_d_8_48)">
   <path d="m15 11.25h-2.5v4.7917h-0.2655c-0.7698 0-1.251 0.8333-0.8661 1.5l1.5156 2.625c0.3849 0.6666 1.3471 0.6666 1.732 0l1.5156-2.625c0.3849-0.6667-0.0963-1.5-0.8661-1.5h-0.2655v-4.7917z" clip-rule="evenodd" fill="#C31111" fill-rule="evenodd"/>
  </g>
  <circle cx="21.667" cy="17.917" r="1.6667" fill="#E9E8E6"/>
 </g>
 <defs>
  <filter id="filter0_d_8_48" x="7.233" y="11.25" width="13.034" height="17.417" color-interpolation-filters="sRGB" filterUnits="userSpaceOnUse">
   <feFlood flood-opacity="0" result="BackgroundImageFix"/>
   <feColorMatrix in="SourceAlpha" result="hardAlpha" values="0 0 0 0 0 0 0 0 0 0 0 0 0 0 0 0 0 0 127 0"/>
   <feOffset dy="4"/>
   <feGaussianBlur stdDeviation="2"/>
   <feComposite in2="hardAlpha" operator="out"/>
   <feColorMatrix values="0 0 0 0 0.399038 0 0 0 0 0.00575536 0 0 0 0 0.00575536 0 0 0 0.25 0"/>
   <feBlend in2="BackgroundImageFix" result="effect1_dropShadow_8_48"/>
   <feBlend in="SourceGraphic" in2="effect1_dropShadow_8_48" result="shape"/>
  </filter>
  <linearGradient id="paint0_linear_8_48" x1="20" x2="20" y1="3.3333" y2="36.667" gradientUnits="userSpaceOnUse">
   <stop stop-color="#fff" offset="0"/>
   <stop stop-color="#CCCAC6" offset="1"/>
  </linearGradient>
  <linearGradient id="paint1_linear_8_48" x1="20" x2="20" y1="3.4389" y2="36.458" gradientUnits="userSpaceOnUse">
   <stop stop-color="#fff" offset="0"/>
   <stop stop-color="#fff" stop-opacity="0" offset="1"/>
  </linearGradient>
  <clipPath id="clip0_8_48">
   <rect width="40" height="40" fill="#fff"/>
  </clipPath>
 </defs>
</svg>
