<?xml version="1.0" encoding="UTF-8"?>
<!DOCTYPE svg PUBLIC "-//W3C//DTD SVG 1.1 Tiny//EN" "http://www.w3.org/Graphics/SVG/1.1/DTD/svg11-tiny.dtd">
<svg baseProfile="tiny" width="96" height="96" fill="none" version="1.1" viewBox="0 0 96 96" xmlns="http://www.w3.org/2000/svg">
<g>
<path d="m88 49c0 29.6-10.4 40-40 40-29.6 0-40-10.4-40-40 0-29.6 10.4-40 40-40 29.6 0 40 10.4 40 40z" fill="#000" fill-opacity=".4"/>
<path d="m88 48c0 29.6-10.4 40-40 40-29.6 0-40-10.4-40-40 0-29.6 10.4-40 40-40 29.6 0 40 10.4 40 40z" fill="url(#b)"/>
<path d="m55.1 27.7 0.765-1.85-0.765 1.85zm-13-1.28-0.39-1.96 0.39 1.96zm-11.5 6.16-1.41-1.41 1.41 1.41zm-4.88 24.5 1.85-0.765-1.85 0.765zm20.8 15.9c1.1 0 2-0.895 2-2s-0.895-2-2-2v4zm24.5-24.5c0-4.85-1.44-9.58-4.13-13.6l-3.33 2.22c2.25 3.37 3.45 7.33 3.45 11.4h4zm-4.13-13.6c-2.69-4.03-6.52-7.17-11-9.02l-1.53 3.7c3.75 1.55 6.95 4.18 9.2 7.55l3.33-2.22zm-11-9.02c-4.48-1.85-9.4-2.34-14.2-1.39l0.78 3.92c3.98-0.791 8.1-0.385 11.8 1.17l1.53-3.7zm-14.2-1.39c-4.75 0.945-9.12 3.28-12.5 6.71l2.83 2.83c2.87-2.87 6.52-4.82 10.5-5.61l-0.78-3.92zm-12.5 6.71c-3.43 3.43-5.76 7.79-6.71 12.5l3.92 0.78c0.791-3.98 2.74-7.63 5.61-10.5l-2.83-2.83zm-6.71 12.5c-0.945 4.75-0.46 9.68 1.39 14.2l3.7-1.53c-1.55-3.75-1.96-7.87-1.17-11.8l-3.92-0.78zm1.39 14.2c1.85 4.48 4.99 8.3 9.02 11l2.22-3.33c-3.37-2.25-6-5.45-7.55-9.2l-3.7 1.53zm9.02 11c4.03 2.69 8.77 4.13 13.6 4.13v-4c-4.05 0-8.02-1.2-11.4-3.45l-2.22 3.33z" fill="#000"/>
<path d="m70.2 55c-0.77 1.33-2.69 1.33-3.46 0l-5.63-9.75c-0.77-1.33 0.192-3 1.73-3h11.3c1.54 0 2.5 1.67 1.73 3l-5.63 9.75z" fill="#000"/>
<g>
<path d="m38.2 36.1c-0.505-0.657-1.45-0.779-2.1-0.274-0.657 0.505-0.779 1.45-0.274 2.1l2.38-1.83zm-2.38 1.83 10 13 2.38-1.83-10-13-2.38 1.83z" fill="#000"/>
</g>
<g>
<path d="m55.1 43c0.547-0.622 0.487-1.57-0.135-2.12s-1.57-0.487-2.12 0.135l2.25 1.98zm-2.25-1.98-7 7.96 2.25 1.98 7-7.96-2.25-1.98z" fill="#000"/>
</g>
<circle cx="47" cy="50" r="4" fill="#C31111"/>
<path d="m48 8c-29.6 0-40 10.4-40 40 0 29.6 10.4 40 40 40 29.6 0 40-10.4 40-40 0-29.6-10.4-40-40-40zm0 79c-29.2 0-39-9.84-39-39s9.84-39 39-39 39 9.84 39 39-9.84 39-39 39z" fill="url(#a)" fill-opacity=".25"/>
</g>
<defs>
<linearGradient id="b" x1="48" x2="48" y1="8" y2="88" gradientUnits="userSpaceOnUse">
<stop stop-color="#fff" offset="0"/>
<stop stop-color="#CCCAC6" offset="1"/>
</linearGradient>
<linearGradient id="a" x1="48" x2="48" y1="8.25" y2="87.5" gradientUnits="userSpaceOnUse">
<stop stop-color="#fff" offset="0"/>
<stop stop-color="#fff" stop-opacity="0" offset="1"/>
</linearGradient>
</defs>
</svg>
